<?xml version="1.0" encoding="UTF-8"?>
<svg xmlns="http://www.w3.org/2000/svg" viewBox="0 0 448 512">
  <!-- Font Awesome user-graduate icon -->
  <path d="M224 256A128 128 0 1 0 224 0a128 128 0 1 0 0 256zm-45.7 48C79.8 304 0 383.8 0 482.3C0 498.7 13.3 512 29.7 512H418.3c16.4 0 29.7-13.3 29.7-29.7C448 383.8 368.2 304 269.7 304H178.3z" fill="#007bff"/>
  <!-- Graduation cap on top -->
  <path d="M397.8 32H50.2C22.7 32 0 54.7 0 82.2v65.5c0 14.6 11.9 26.5 26.5 26.5 3.6 0 7.2-.7 10.7-2.3l86.2-43.1c16.8-8.4 36.8-8.4 53.6 0l86.2 43.1c3.5 1.5 7.1 2.3 10.7 2.3 14.6 0 26.5-11.9 26.5-26.5V82.2C300 54.7 277.3 32 249.8 32h-51.6L224 0" fill="#007bff"/>
</svg>